Coordinates
version=1
nRows=14
nColumns=24
inDegrees=yes

Units are S.I. units (second, meters, Newtons, ...)
Angles are in degrees.

endheader
time	pelvis_tilt	pelvis_list	pelvis_rotation	pelvis_tx	pelvis_ty	pelvis_tz	hip_flexion_r	hip_adduction_r	hip_rotation_r	knee_angle_r	ankle_angle_r	subtalar_angle_r	mtp_angle_r	hip_flexion_l	hip_adduction_l	hip_rotation_l	knee_angle_l	ankle_angle_l	subtalar_angle_l	mtp_angle_l	lumbar_extension	lumbar_bending	lumbar_rotation
      3.41000000	     -8.84293327	     -4.21800697	     11.95064695	     -1.27992814	     -0.05510719	      0.57934868	     38.43117306	     -3.65080216	    -22.43111329	    -15.20365785	     -1.14237717	      3.27748073	      2.18915926	     -9.31704758	     -5.01352685	      5.54032272	    -13.10073227	     15.49264334	     10.65230975	     11.20625130	      4.69164423	      1.89707465	    -15.89239501
      3.41500000	     -8.85867926	     -4.57617464	     12.03464448	     -1.27172806	     -0.05648392	      0.57959466	     38.47725936	     -3.29002758	    -22.45892926	    -15.71124026	     -1.83546300	      3.12905157	      2.35516856	     -9.37843041	     -5.55470737	      5.37874499	    -13.84122856	     15.32501199	     11.09583840	     11.62686671	      4.84859151	      2.31661153	    -15.95193200
      3.42000000	     -8.89145933	     -4.95550651	     12.06925292	     -1.26346576	     -0.05782501	      0.57989845	     38.56271189	     -2.89070413	    -22.37504904	    -16.28751923	     -2.69989527	      2.82297734	      2.57312210	     -9.38732054	     -6.11459295	      5.10987306	    -14.64614639	     15.07693897	     11.60351362	     12.20400228	      5.03816609	      2.76249742	    -15.94427656
      3.42500000	     -8.92789563	     -5.34395049	     12.06915422	     -1.25518466	     -0.05909150	      0.58022861	     38.68353818	     -2.47728734	    -22.22152979	    -16.95387660	     -3.68575276	      2.38009809	      2.73747160	     -9.35943448	     -6.67913768	      4.80976803	    -15.51107249	     14.72327671	     12.10613124	     12.88264299	      5.23697868	      3.22759703	    -15.89081811
      3.43000000	     -8.96801953	     -5.74187249	     12.04380067	     -1.24690595	     -0.06027131	      0.58059008	     38.84069056	     -2.05231598	    -21.99336085	    -17.71020328	     -4.72948640	      1.80419606	      2.76924339	     -9.27982633	     -7.25062575	      4.49369126	    -16.46116890	     14.26059608	     12.60669784	     13.64239049	      5.44166400	      3.70752230	    -15.81034446
      3.43500000	     -9.00958275	     -6.14392534	     11.97501358	     -1.23861876	     -0.06134704	      0.58100373	     39.03675991	     -1.60578586	    -21.67683369	    -18.56248944	     -5.78532349	      1.07695496	      2.64529349	     -9.15898691	     -7.82794647	      4.11513682	    -17.48255317	     13.66391183	     13.16044484	     14.55148389	      5.64856660	      4.19904432	    -15.67138216
      3.44000000	     -9.05161021	     -6.55259977	     11.88574431	     -1.23035433	     -0.06232583	      0.58143968	     39.26455303	     -1.14439859	    -21.27456739	    -19.50400892	     -6.75230667	      0.21873308	      2.34238879	     -8.96831160	     -8.41333325	      3.69585016	    -18.62533427	     12.93617359	     13.71402732	     15.57407696	      5.85344464	      4.70326754	    -15.50234201
      3.44500000	     -9.09183231	     -6.95083197	     11.73356688	     -1.22209173	     -0.06319608	      0.58195354	     39.52724773	     -0.65568219	    -20.78925136	    -20.54566745	     -7.61479148	     -0.72524639	      1.86084021	     -8.74410246	     -8.99363714	      3.19599244	    -19.83910352	     12.05193596	     14.33472745	     16.79881231	      6.04675158	      5.20733202	    -15.26546871
      3.45000000	     -9.13553055	     -7.35893321	     11.56326866	     -1.21383863	     -0.06395210	      0.58248591	     39.80377816	     -0.13867781	    -20.24664278	    -21.63440992	     -8.33017831	     -1.75282348	      1.27003219	     -8.44673413	     -9.58939331	      2.68850074	    -21.17274977	     11.01581659	     14.95252645	     18.08156660	      6.24479553	      5.72527083	    -15.03213579
      3.45500000	     -9.17276841	     -7.76348298	     11.35210312	     -1.20557504	     -0.06458919	      0.58307750	     40.07419283	      0.41345468	    -19.67447819	    -22.75223379	     -8.88556566	     -2.79573869	      0.63426278	     -8.10575651	    -10.19314188	      2.14203071	    -22.59808004	      9.80483874	     15.60295670	     19.48468277	      6.43105245	      6.24646780	    -14.74156383
      3.46000000	     -9.20673049	     -8.15906673	     11.12288571	     -1.19731214	     -0.06509792	      0.58369523	     40.32186131	      0.98534858	    -19.10342293	    -23.85954870	     -9.29245329	     -3.85339268	      0.02943292	     -7.70601065	    -10.79953170	      1.59846980	    -24.12609758	      8.41983641	     16.25908059	     20.93175777	      6.60960291	      6.75930811	    -14.42952290
      3.46500000	     -9.23183497	     -8.52899067	     10.88596041	     -1.18909050	     -0.06548400	      0.58436599	     40.53066063	      1.56354654	    -18.53216122	    -24.93341067	     -9.55300000	     -4.90656565	     -0.46854586	     -7.24332634	    -11.39880713	      1.05302512	    -25.76680014	      6.86858424	     16.93330237	     22.37017670	      6.76333011	      7.24084127	    -14.11597932
      3.47000000	     -9.24234114	     -8.86153543	     10.63655642	     -1.18092923	     -0.06573771	      0.58507564	     40.67870822	      2.13899859	    -17.97250590	    -25.94267571	     -9.66927649	     -5.88325474	     -0.79802131	     -6.72657612	    -11.97663734	      0.51421419	    -27.51376930	      5.16248659	     17.62022698	     23.73955058	      6.88097630	      7.68674149	    -13.80381225
      3.47500000	     -9.23497014	     -9.17234458	     10.36862436	     -1.17278372	     -0.06586733	      0.58583135	     40.75237765	      2.72995623	    -17.44392723	    -26.86733531	     -9.64535935	     -6.76207920	     -0.94554058	     -6.16981026	    -12.55037109	     -0.02886534	    -29.33720715	      3.30775829	     18.24607159	     25.10413659	      6.96820206	      8.10759043	    -13.47321397
